<svg width="61" height="57" viewBox="0 0 61 57" fill="none" xmlns="http://www.w3.org/2000/svg">
<g id="ri-bear-smile-fill" clip-path="url(#clip0_6_22)">
<g id="Group">
<path id="Vector" d="M44.4791 5.16666C46.8095 5.16682 49.0842 5.82047 50.9988 7.04011C52.9134 8.25975 54.3764 9.98719 55.1922 11.9912C56.0079 13.9952 56.1374 16.1801 55.5632 18.2535C54.9891 20.327 53.7388 22.1899 51.9796 23.593C52.8819 25.8493 53.375 28.29 53.375 30.8333C53.3731 33.9014 52.639 36.9318 51.2242 39.7115C49.8094 42.4911 47.7484 44.9523 45.1861 46.9221C42.6239 48.8918 39.6225 50.3223 36.3933 51.1127C33.1642 51.9031 29.7855 52.0344 26.4951 51.4973C23.2047 50.9601 20.0825 49.7676 17.3481 48.0036C14.6137 46.2396 12.3335 43.947 10.668 41.2871C9.00248 38.6272 7.99207 35.6645 7.70785 32.6075C7.42363 29.5506 7.8725 26.4736 9.02289 23.593C7.7777 22.5996 6.78132 21.3707 6.10211 19.9905C5.4229 18.6104 5.07694 17.1117 5.08796 15.5973C5.09898 14.0829 5.46673 12.5886 6.16596 11.2169C6.8652 9.84522 7.87937 8.62863 9.13891 7.6506C10.3985 6.67258 11.8735 5.95625 13.463 5.55078C15.0524 5.14531 16.7186 5.06029 18.3472 5.30155C19.9758 5.5428 21.5283 6.10463 22.8982 6.94848C24.268 7.79233 25.4228 8.89824 26.2833 10.1903C29.0721 9.71263 31.933 9.71263 34.7217 10.1903C35.7422 8.65504 37.1758 7.38655 38.8846 6.50677C40.5934 5.62699 42.52 5.1655 44.4791 5.16666ZM25.4166 30.8333H20.3333C20.3333 33.2683 21.3698 35.6069 23.2217 37.35C25.0736 39.0932 27.5942 40.103 30.2457 40.1639C32.8973 40.2248 35.4697 39.332 37.4143 37.676C39.3588 36.02 40.5214 33.7319 40.6539 31.3L40.6666 30.8333H35.5833C35.5892 32.0443 35.0821 33.2099 34.1692 34.084C33.2562 34.9581 32.0089 35.4722 30.6908 35.5176C29.3726 35.563 28.0868 35.1363 27.105 34.3275C26.1232 33.5187 25.5224 32.3913 25.4293 31.1833L25.4166 30.8333Z" fill="#FFFFFE"/>
</g>
</g>
<defs>
<clipPath id="clip0_6_22">
<rect width="61" height="56" fill="white" transform="translate(0 0.5)"/>
</clipPath>
</defs>
</svg>
